<svg width="351" height="46" fill="none" xmlns="http://www.w3.org/2000/svg"><path fill-rule="evenodd" clip-rule="evenodd" d="M45.534 22.738C45.534 10.168 35.337 0 22.767 0S0 10.168 0 22.738s10.197 22.767 22.767 22.767 22.767-10.197 22.767-22.767zm-11.252 6.651c1.055-1.904-.673-2.696-2.314-2.315-.938.205-1.055 1.202-1.172 2.374-.059.586-.616 1.055-1.143 1.26-2.52 1.055-2.579-.791-1.846-1.817.44-.586.264-1.348-.44-1.758-.586-.322-1.406-.381-1.934 0-.523.414-.64 1.056-.751 1.66-.038.206-.075.409-.128.596-.205.762-.879 1.114-1.494 1.29-2.022.615-3.165-1.612-1.524-2.374v-8.761c-3.692.322-7.296 1.758-8.057 4.63-1.465 5.596 2.285 10.753 9.112 11.31 5.538.44 9.875-2.784 11.691-6.095zm8.498-9.904H24.26v4.689c.16-.125.32-.253.48-.381 1.34-1.075 2.731-2.189 4.59-2.11.703.03 1.113.527 1.465 1.23.58 1.16.685 1.087 1.808.315.127-.087.265-.182.419-.285 1.26-.85 2.314-1.524 3.78-1.553 4.043-.088-.206 8.292-1.055 9.67-2.755 4.57-7.443 7.06-14.212 6.68-5.45-.322-9.816-3.106-12.628-8.761-2.755-6.446-2.052-12.482 6.036-12.336 2.197.03 4.395.059 6.592.059v-6.74c0-.552-.296-.655-.589-.756-.219-.077-.436-.152-.524-.416-.293-.996.82-1.816 2.051-1.7 1.055.089 1.787 1.026 1.787 2.11v1.231h2.169c.351-1.348 1.553-2.373 3.018-2.373a3.108 3.108 0 013.106 3.106 3.089 3.089 0 01-3.106 3.106 3.055 3.055 0 01-3.018-2.432H24.26v4.864c2.978 0 5.955-.015 8.929-.03h.001c2.967-.014 5.93-.029 8.886-.029C39.498 8.44 31.82 2.491 22.767 2.491c-11.193 0-20.276 9.054-20.276 20.247s9.083 20.276 20.276 20.276 20.277-9.083 20.277-20.276c0-1.084-.118-2.168-.264-3.253zM62.032 34.05a31.175 31.175 0 01-1.495-.176V10.579h16.38v4.424h-10.93v4.073c.165-.014.336-.034.511-.055.198-.023.4-.047.603-.062.38-.03.79-.03 1.172-.03.351-.029.703-.029 1.025-.029 1.026 0 2.022.088 2.96.293.967.205 1.846.498 2.666.88.791.41 1.494.878 2.11 1.464a6.23 6.23 0 011.406 2.08c.352.792.528 1.67.528 2.667 0 1.026-.176 1.934-.498 2.754-.352.791-.792 1.495-1.407 2.08-.586.587-1.29 1.055-2.08 1.466-.791.41-1.641.732-2.579.967a18.56 18.56 0 01-2.93.498 26.23 26.23 0 01-3.047.175c-.85 0-1.67-.029-2.403-.058a31.975 31.975 0 01-1.992-.117zm4.922-11.047l-.967.088v6.945c.293.029.616.058.967.087h1.084c1.085 0 1.993-.146 2.784-.468.762-.323 1.377-.762 1.787-1.29a3.04 3.04 0 00.616-1.846c0-.703-.235-1.348-.674-1.875-.44-.527-1.055-.938-1.846-1.23-.791-.294-1.729-.44-2.784-.44-.161 0-.322.007-.483.015a10.55 10.55 0 01-.484.014zm20.042-3.224v-4.717h10.52v-4.483H81.487V33.99h16.555v-4.512H86.996v-5.245h9.933v-4.454h-9.933zm16.028 14.3a8.182 8.182 0 01-2.315.322l-.79-4.396c.761-.117 1.376-.38 1.874-.762.528-.41.909-.966 1.202-1.67.293-.703.498-1.611.615-2.695.147-1.055.205-2.345.205-3.868V10.578h16.555v23.411h-5.332V15.002h-6.036v5.626c0 1.436-.059 2.813-.176 4.073a20.715 20.715 0 01-.616 3.545c-.322 1.084-.732 2.051-1.26 2.872a7.032 7.032 0 01-2.051 2.11c-.527.351-1.172.615-1.875.85zM125 33.99h5.274v-9.64h2.285c.147 1.406.469 2.725.967 3.926.499 1.23 1.143 2.285 1.993 3.194a8.776 8.776 0 003.018 2.11c1.172.527 2.491.761 3.985.79 1.553 0 2.989-.263 4.249-.79a9 9 0 003.281-2.345c.938-1.025 1.641-2.314 2.139-3.867.498-1.553.762-3.311.762-5.362 0-1.173-.117-2.315-.381-3.458a12.186 12.186 0 00-1.143-3.194 9.816 9.816 0 00-1.963-2.666 8.764 8.764 0 00-2.813-1.817c-1.084-.44-2.344-.645-3.721-.674-1.436 0-2.725.264-3.868.733a9.88 9.88 0 00-3.047 2.021A10.778 10.778 0 00133.878 16c-.557 1.143-.938 2.402-1.172 3.75h-2.432v-9.171H125V33.99zm17.756-3.985c-.849 0-1.611-.205-2.227-.616a4.669 4.669 0 01-1.582-1.7c-.41-.732-.703-1.552-.908-2.46a15.816 15.816 0 01-.293-2.96c0-1.055.117-2.022.322-2.96a8.447 8.447 0 01.938-2.46c.439-.704.937-1.29 1.553-1.67.615-.41 1.348-.616 2.139-.616.849 0 1.553.205 2.168.615a4.23 4.23 0 011.524 1.67c.41.704.703 1.495.908 2.432.205.909.293 1.905.293 2.93 0 1.143-.088 2.198-.293 3.165a8.417 8.417 0 01-.938 2.461 4.423 4.423 0 01-1.494 1.612c-.615.38-1.289.557-2.11.557zm31.352-10.05c-.557.498-1.318.937-2.227 1.26v.117a6.298 6.298 0 012.461 1.113 5.464 5.464 0 011.641 1.934c.411.762.616 1.64.616 2.637 0 .733-.118 1.436-.323 2.051-.234.615-.527 1.201-.937 1.7-.381.527-.85.966-1.377 1.377a8.539 8.539 0 01-2.198 1.084c-.879.322-1.934.557-3.135.703-1.231.176-2.667.264-4.278.264a110.16 110.16 0 01-3.692-.117l-.472-.04c-.816-.068-1.5-.125-2.019-.224V10.9a12.18 12.18 0 011.348-.205 27.59 27.59 0 011.787-.146 43.16 43.16 0 012.052-.117l.081-.004a51.765 51.765 0 012.087-.055c1.143 0 2.139.059 2.989.117.849.088 1.611.205 2.285.381a9.54 9.54 0 011.875.703 5.477 5.477 0 011.612 1.055c.469.469.82.996 1.084 1.612.293.615.41 1.289.41 2.05 0 .704-.117 1.349-.41 1.964a4.598 4.598 0 01-1.26 1.7zm-10.49-5.421v5.215h1.846c1.084 0 1.993-.117 2.696-.351.732-.235 1.26-.557 1.641-.967.351-.41.527-.909.527-1.465 0-.85-.351-1.495-1.055-1.934-.703-.44-1.728-.674-3.047-.674-.674 0-1.231.03-1.641.058-.41.03-.732.06-.967.118zm4.073 9.318a11.717 11.717 0 00-2.08-.176h-1.993v6.329c.293.058.616.088.996.088h1.319a9.48 9.48 0 001.875-.176c.586-.117 1.114-.293 1.583-.557.468-.264.82-.615 1.084-1.025.263-.41.381-.938.381-1.524 0-.557-.118-1.055-.381-1.465a3.593 3.593 0 00-1.114-.967 6.975 6.975 0 00-1.67-.527zm17.553-4.074v-4.717h10.49v-4.483h-15.999v23.411h16.556v-4.512h-11.047v-5.245h9.933v-4.454h-9.933zm16.145 14.3a8.345 8.345 0 01-2.315.322l-.821-4.396a4.28 4.28 0 001.905-.762c.498-.41.879-.966 1.172-1.67.322-.703.527-1.611.645-2.695.117-1.055.175-2.345.175-3.868V10.578h16.556v23.411h-5.333V15.002h-6.036v5.626c0 1.436-.059 2.813-.176 4.073a20.718 20.718 0 01-.615 3.545 10.284 10.284 0 01-1.26 2.872 7.056 7.056 0 01-2.051 2.11c-.528.351-1.143.615-1.846.85zm41.372-23.5h-6.505l-4.454 8.263-1.231 2.46a74.749 74.749 0 00-1.259 2.667c-.44.88-.821 1.758-1.173 2.608h-.117a71.59 71.59 0 00.381-4.717c.059-1.7.117-3.487.117-5.333v-5.948h-5.274v23.411h5.948l4.601-8.526c.41-.791.849-1.641 1.289-2.55l.001-.003c.439-.907.878-1.814 1.317-2.75.197-.437.401-.873.602-1.302l.002-.005.001-.003.001-.003h.001v-.001c.216-.462.428-.915.624-1.353h.088l-.049 1.126c-.051 1.128-.105 2.34-.127 3.65-.058 1.729-.058 3.604-.058 5.596v6.124h5.274V10.578zm10.197 15.324v8.087h-5.421V10.9a48.527 48.527 0 011.875-.263c.703-.088 1.553-.146 2.491-.205a52.826 52.826 0 013.252-.088c1.641 0 3.106.147 4.425.44 1.318.293 2.461.79 3.457 1.494.528.41.996.88 1.407 1.436a6.75 6.75 0 01.996 1.875c.234.703.352 1.465.381 2.286 0 1.67-.41 3.106-1.231 4.336-.82 1.201-2.022 2.14-3.633 2.813-1.582.674-3.575.996-5.948.996-.411 0-.791 0-1.143-.029-.322-.03-.645-.059-.908-.088zm.667-11.268a5.948 5.948 0 00-.667.104v6.886c.104.012.213.028.329.045.176.026.367.055.579.072.16 0 .333.006.521.013.223.008.468.017.739.017 1.055 0 1.963-.147 2.754-.44.791-.293 1.377-.732 1.817-1.29.439-.585.674-1.288.674-2.109 0-1.084-.41-1.904-1.231-2.49-.82-.587-1.992-.88-3.545-.88-.674 0-1.202 0-1.641.03-.118.015-.227.03-.329.042zm26.497 19.355V15.266h7.618v-4.688h-20.657v4.688h7.53v18.723h5.509zm24.142-.468c-1.406.557-2.989.85-4.747.85-1.436 0-2.754-.206-3.926-.616a10.347 10.347 0 01-3.106-1.729 10.002 10.002 0 01-2.256-2.578 11.608 11.608 0 01-1.377-3.282c-.323-1.172-.469-2.432-.469-3.721 0-1.407.176-2.696.527-3.926a11.67 11.67 0 011.495-3.37 10.878 10.878 0 012.402-2.637c.938-.733 1.993-1.29 3.194-1.7 1.172-.41 2.491-.615 3.868-.615 1.465 0 2.813.205 3.985.615 1.201.41 2.227.967 3.135 1.7.908.732 1.641 1.611 2.256 2.608a10.913 10.913 0 011.377 3.223c.323 1.172.469 2.402.469 3.692 0 1.904-.293 3.633-.82 5.128-.557 1.523-1.319 2.842-2.344 3.896a10.62 10.62 0 01-3.663 2.462zm-6.798-4.132c.674.352 1.436.528 2.286.528.908 0 1.67-.176 2.373-.557a5.028 5.028 0 001.729-1.611c.498-.674.85-1.495 1.084-2.432.264-.938.381-1.964.381-3.106 0-1.026-.117-2.022-.381-2.93-.234-.909-.586-1.73-1.055-2.403a5.226 5.226 0 00-1.758-1.641c-.674-.381-1.465-.586-2.373-.586-.879 0-1.671.205-2.374.586-.703.38-1.289.937-1.758 1.64-.498.704-.85 1.495-1.113 2.433-.235.908-.352 1.934-.352 3.018 0 1.143.117 2.168.381 3.106.264.937.645 1.729 1.143 2.402.498.674 1.084 1.202 1.787 1.553zm22.211 4.6v-8.087c.264.03.557.059.908.088.323.03.703.03 1.114.03 2.373 0 4.366-.323 5.977-.997 1.612-.674 2.813-1.611 3.604-2.813.821-1.23 1.231-2.666 1.231-4.336 0-.82-.117-1.583-.381-2.286a6.676 6.676 0 00-.967-1.875 8.319 8.319 0 00-1.436-1.436c-.967-.703-2.109-1.201-3.428-1.494-1.319-.293-2.813-.44-4.454-.44a52.826 52.826 0 00-5.743.293c-.703.088-1.318.176-1.875.264v23.09h5.45zm0-19.25c.154-.045.374-.072.659-.108h.001l.307-.04c.439-.028.996-.028 1.67-.028 1.524 0 2.725.292 3.545.879.792.586 1.202 1.406 1.202 2.49 0 .82-.205 1.524-.645 2.11-.439.557-1.055.996-1.846 1.29-.791.292-1.699.439-2.754.439-.271 0-.516-.009-.739-.017a15.04 15.04 0 00-.521-.013 8.965 8.965 0 01-.527-.068 9.507 9.507 0 00-.352-.049v-6.886zm20.452.527v18.723h-5.508V10.578H351v4.688h-10.871z" fill="#C6A544"/></svg>